<?xml version="1.0" standalone="no"?>
<!DOCTYPE svg PUBLIC "-//W3C//DTD SVG 20010904//EN"
 "http://www.w3.org/TR/2001/REC-SVG-20010904/DTD/svg10.dtd">
<svg version="1.0" xmlns="http://www.w3.org/2000/svg"
 width="256.000000pt" height="256.000000pt" viewBox="0 0 256.000000 256.000000"
 preserveAspectRatio="xMidYMid meet">
<metadata>
Created by potrace 1.14, written by Peter Selinger 2001-2017
</metadata>
<g transform="translate(0.000000,256.000000) scale(0.100000,-0.100000)"
fill="#000000" stroke="none">
<path d="M0 1803 l0 -757 40 65 c22 35 49 83 60 106 13 30 31 48 60 63 23 12
63 36 88 54 103 72 409 196 486 196 41 0 76 -35 76 -76 0 -28 15 -63 23 -54 2
3 22 32 44 65 55 81 122 165 132 165 5 0 11 -13 14 -30 6 -25 -3 -43 -58 -120
-110 -151 -184 -270 -179 -284 3 -7 18 -23 34 -34 l29 -22 84 128 c47 70 103
144 124 165 35 33 41 36 53 23 10 -13 8 -21 -16 -49 -50 -56 -194 -281 -194
-301 0 -3 19 -15 43 -27 23 -12 44 -23 45 -25 2 -1 -1 -19 -8 -39 -13 -39 -21
-40 -82 -9 -15 8 -32 14 -37 14 -9 0 -61 -72 -61 -84 0 -3 31 4 70 15 78 21
94 23 85 10 -3 -5 -41 -21 -86 -36 -44 -15 -88 -36 -99 -47 -20 -22 -96 -199
-102 -238 -3 -25 -58 -70 -85 -70 -21 0 -9 45 43 168 24 57 44 108 44 112 0 5
-20 2 -45 -7 -49 -16 -80 -52 -100 -112 -9 -27 -24 -42 -58 -61 -25 -13 -49
-22 -52 -18 -4 4 9 37 29 74 20 37 34 69 33 70 -1 2 -36 -6 -77 -17 -88 -23
-219 -34 -283 -25 -25 4 -62 18 -81 31 l-36 24 0 -404 0 -405 1280 0 1280 0 0
739 0 740 -24 27 c-23 28 -23 28 -82 15 -122 -27 -348 -112 -374 -141 -8 -9
-34 -22 -57 -29 -24 -6 -43 -15 -43 -20 0 -12 52 -57 87 -75 45 -23 60 -20 35
7 -32 33 -16 52 30 33 41 -18 55 -33 60 -65 2 -20 23 -35 103 -78 154 -82 194
-141 145 -220 -40 -67 -148 -126 -350 -193 -135 -46 -224 -61 -215 -38 7 16
39 28 155 54 41 9 118 36 170 61 142 66 188 120 155 183 -25 48 -146 120 -180
106 -8 -3 -19 -16 -24 -28 -32 -80 -204 -237 -316 -289 -87 -41 -201 -55 -266
-34 -83 28 -125 74 -153 169 -11 37 -16 41 -42 40 -16 -1 -41 -7 -55 -12 -25
-10 -26 -16 -39 -130 -12 -112 -11 -135 6 -206 5 -22 3 -32 -11 -43 -25 -18
-155 -18 -180 1 -18 13 -18 16 18 74 38 62 68 177 65 253 l-2 36 -55 -14 c-31
-8 -67 -21 -81 -28 -34 -18 -94 -90 -114 -138 -8 -20 -19 -37 -24 -37 -6 0
-44 -32 -85 -70 -47 -44 -87 -72 -106 -76 -17 -4 -31 -3 -31 2 0 5 26 33 58
64 31 30 77 81 102 114 l44 58 -28 25 c-25 21 -27 26 -15 38 21 21 117 54 139
48 29 -8 128 97 232 247 130 186 116 173 168 161 25 -6 66 -11 93 -11 53 0 60
-13 26 -49 -25 -27 -65 -43 -88 -36 -18 5 -59 -32 -80 -72 -6 -11 -14 -53 -17
-93 l-7 -71 27 5 c14 3 37 8 50 11 19 4 33 23 62 83 47 98 168 222 259 267 33
16 77 40 98 52 46 29 151 63 193 63 17 0 43 -10 58 -21 l27 -21 122 45 c172
63 265 94 315 102 l42 7 0 484 0 484 -1280 0 -1280 0 0 -757z m300 209 c63
-31 90 -135 56 -217 -29 -69 -133 -98 -202 -56 -63 38 -81 156 -37 232 33 56
116 75 183 41z m500 9 c26 -6 52 -18 62 -31 22 -28 24 -102 3 -120 -20 -17
-19 -28 10 -94 l25 -57 -47 3 -48 3 -19 53 c-25 70 -46 69 -46 -3 l0 -55 -45
0 -45 0 0 148 c0 82 3 152 7 155 9 10 89 8 143 -2z m557 -14 c48 -25 67 -63
68 -132 0 -108 -43 -146 -171 -153 l-84 -5 0 158 0 158 78 -6 c44 -2 92 -12
109 -20z m553 -17 l0 -40 -61 0 c-52 0 -60 -2 -57 -17 2 -14 15 -19 51 -21 44
-3 47 -5 47 -32 0 -27 -2 -29 -47 -32 -44 -3 -48 -5 -48 -28 0 -24 3 -25 63
-28 l62 -3 0 -34 0 -35 -105 0 -105 0 0 155 0 155 100 0 100 0 0 -40z m477 15
c45 -30 54 -105 18 -145 -14 -15 -13 -23 10 -74 14 -31 25 -59 25 -61 0 -3
-20 -5 -44 -5 -45 0 -45 0 -64 53 -11 29 -27 53 -36 55 -13 3 -16 -6 -16 -52
l0 -56 -40 0 -40 0 0 156 0 157 81 -6 c48 -4 92 -13 106 -22z m-1257 -312 c0
-18 -28 -53 -42 -53 -13 0 -9 58 5 63 24 10 37 7 37 -10z m324 -109 c9 -8 16
-19 16 -23 0 -16 -101 -141 -113 -141 -9 0 -13 19 -14 65 0 54 3 69 23 90 26
28 65 33 88 9z m-254 -69 c-7 -8 -16 -12 -21 -9 -13 8 -1 24 18 24 13 0 13 -3
3 -15z m248 -54 c-10 -17 -9 -23 6 -40 16 -18 17 -21 3 -21 -21 0 -47 11 -47
20 0 8 39 60 46 60 2 0 -1 -9 -8 -19z m-248 -272 c-128 -176 -148 -199 -168
-199 -20 0 -7 48 22 80 12 14 47 59 77 100 71 99 160 193 172 181 5 -5 -37
-71 -103 -162z m-172 -391 c4 -20 -29 -33 -39 -16 -9 15 9 40 25 35 6 -2 12
-11 14 -19z m766 -124 c20 -8 21 -48 1 -64 -32 -27 -82 23 -55 55 13 16 29 19
54 9z m-738 -65 c10 -17 -23 -46 -37 -32 -7 7 -9 19 -6 27 7 18 33 21 43 5z
m680 -78 c-10 -16 -36 -13 -43 5 -8 22 18 37 36 20 7 -8 10 -19 7 -25z m-453
7 c7 -21 -4 -38 -24 -38 -24 0 -37 29 -18 41 20 12 37 11 42 -3z m875 -125 c3
-19 -1 -23 -21 -23 -25 0 -42 23 -31 41 11 19 49 5 52 -18z"/>
<path d="M206 1947 c-26 -19 -33 -99 -12 -132 34 -52 86 -15 86 62 0 30 -6 49
-20 63 -24 24 -30 24 -54 7z"/>
<path d="M740 1925 c0 -27 26 -35 47 -14 17 17 4 39 -23 39 -19 0 -24 -5 -24
-25z"/>
<path d="M1260 1870 c0 -90 11 -100 55 -55 45 44 24 135 -31 135 -23 0 -24 -2
-24 -80z"/>
<path d="M2280 1925 c0 -23 4 -26 28 -23 19 2 27 9 27 23 0 14 -8 21 -27 23
-24 3 -28 0 -28 -23z"/>
<path d="M485 1376 c-120 -46 -164 -74 -211 -136 -26 -32 -63 -70 -84 -84 -49
-32 -84 -79 -104 -139 -20 -60 -20 -90 -1 -127 25 -49 80 -70 182 -70 71 0
238 22 249 33 1 1 39 70 85 152 78 143 81 151 70 182 -7 18 -10 41 -6 52 7 22
51 44 74 36 12 -4 21 3 29 20 7 14 12 28 12 30 0 3 -29 4 -64 3 -51 -2 -69 2
-85 16 -12 11 -21 25 -21 31 0 14 -22 25 -48 25 -9 -1 -44 -11 -77 -24z"/>
<path d="M1843 1355 c-62 -23 -141 -73 -201 -129 -35 -33 -106 -138 -116 -172
-6 -19 -1 -22 46 -27 29 -4 68 -7 86 -7 18 0 52 -10 74 -21 l42 -21 -23 -19
c-28 -23 -46 -24 -97 -6 -68 24 -111 27 -126 10 -10 -13 -10 -17 0 -20 6 -3
12 -17 12 -33 0 -40 54 -90 96 -90 18 0 36 -4 39 -10 11 -18 89 -10 142 14 77
36 155 99 217 175 51 62 93 137 83 147 -2 2 -39 19 -83 38 -43 19 -93 48 -111
64 -36 32 -43 71 -18 92 15 13 21 41 8 39 -5 -1 -36 -11 -70 -24z"/>
<path d="M1193 1123 c-5 -10 -16 -38 -23 -63 -7 -25 -23 -56 -34 -69 l-21 -23
35 7 c19 4 36 8 37 9 5 5 23 149 19 153 -2 3 -8 -4 -13 -14z"/>
<path d="M666 994 c-31 -59 -54 -109 -52 -112 3 -3 25 1 49 8 40 11 48 18 86
85 22 40 41 76 41 80 0 10 -43 44 -56 45 -6 0 -36 -48 -68 -106z"/>
</g>
</svg>
